<svg width="597" height="509" viewBox="0 0 597 509" fill="none" xmlns="http://www.w3.org/2000/svg">
<rect width="597" height="509" fill="white"/>
<g clip-path="url(#clip0)">
<path d="M481.452 319.147C480.003 316.976 474.572 310.825 460.45 317.338C456.828 319.147 451.035 322.041 444.155 325.66C427.135 334.343 403.96 346.283 387.665 351.348C368.111 357.499 353.989 353.881 334.797 347.73C340.953 347.007 346.747 346.645 351.454 346.283C362.317 345.197 367.749 337.961 367.749 331.449C367.749 325.298 362.68 317.338 348.919 316.252C314.519 313.358 229.875 305.76 228.789 305.76H179.904V302.142C179.904 299.971 178.456 298.523 176.283 298.523H117.621C115.448 298.523 114 299.971 114 302.142V377.399C114 379.57 115.448 381.017 117.621 381.017H176.374C178.546 381.017 179.995 379.57 179.995 377.399V374.866H214.033C219.827 375.952 291.887 390.424 343.216 400.555C348.648 401.641 353.717 402.002 358.787 402.002C371.099 402.002 382.686 399.108 392.825 393.681C394.998 392.595 397.171 391.148 399.705 390.062C416.725 380.655 445.693 365.097 474.3 340.494C482.176 332.896 485.073 324.574 481.452 319.147ZM121.423 373.057V305.036H172.752V308.292C172.752 308.654 172.752 308.654 172.752 309.016C172.752 309.378 172.752 309.378 172.752 309.74V373.419H121.333V373.057H121.423V373.057ZM469.502 334.343C441.258 358.223 413.013 373.781 395.994 383.188C393.459 384.635 391.286 385.721 389.114 386.806C376.44 394.042 360.507 396.213 344.574 392.957C290.982 382.464 215.029 367.268 215.029 367.268C214.667 367.268 214.667 367.268 214.305 367.268H180.266V312.996H228.427C229.151 312.996 314.157 320.594 348.557 323.489C357.61 324.212 360.869 328.192 360.869 331.449C360.869 334.705 357.61 338.323 351.092 339.047C343.85 339.77 335.159 340.494 325.382 341.579C297.5 343.75 269.255 345.559 268.893 345.559C266.72 345.559 265.272 347.368 265.634 349.539C265.634 351.348 267.444 352.796 269.255 352.796C269.255 352.796 269.255 352.796 269.617 352.796C269.979 352.796 292.43 351.348 317.054 349.539C320.313 350.625 323.572 351.71 326.469 352.796C349.644 360.756 365.939 366.183 390.2 358.585C407.219 353.157 430.756 341.218 448.138 332.172C454.656 328.916 460.45 325.66 464.071 324.212C470.589 321.318 474.934 321.68 476.02 323.127C476.744 324.574 475.296 329.278 469.502 334.343Z" fill="black"/>
<path d="M218.379 69.936H258.818C285.27 69.936 285.705 80.0397 285.705 112.92C285.705 139.35 285.705 149.888 268.278 150.53V151.824C273.873 152.258 282.69 153.117 284.845 164.505C285.279 167.517 285.488 168.585 285.488 199.538C285.488 234.354 283.55 242.522 253.223 242.522H218.162V69.936H218.379ZM240.532 142.362C257.098 142.362 259.678 142.362 261.606 137.632C263.326 133.977 263.326 119.794 263.326 114.204C263.326 110.984 263.109 106.47 262.892 101.957C262.457 94.8651 261.815 92.7123 259.877 91.4278C258.157 90.3514 257.514 90.3514 240.522 90.3514L240.532 142.362ZM240.532 161.276V221.455H252.363C259.035 221.455 261.181 221.021 262.475 218.018C263.978 215.006 263.978 195.667 263.978 191.153C263.978 164.505 262.901 161.276 253.441 161.276H240.532Z" fill="black"/>
<path d="M311.296 116.999C311.296 102.173 311.296 92.0697 317.75 82.1831C325.708 69.2935 338.825 68 346.14 68C376.901 68 376.901 93.1461 376.901 105.828V123.882H355.826V104.534C355.826 94.6476 355.392 86.9139 345.289 86.9139C333.674 86.9139 333.674 97.4427 333.674 106.045V205.336C333.674 216.516 333.674 226.185 344.863 226.185C356.261 226.185 356.261 215.874 356.261 210.709V171.597H342.283V150.53H378.847V242.512H365.078L363.141 234.344C359.918 238.216 354.966 245.09 342.274 245.09C310.87 245.09 310.87 214.571 310.87 202.107V116.999H311.296Z" fill="black"/>
</g>
<defs>
<clipPath id="clip0">
<rect width="369" height="334" fill="white" transform="translate(114 68)"/>
</clipPath>
</defs>
</svg>
