<svg width="597" height="509" viewBox="0 0 597 509" fill="none" xmlns="http://www.w3.org/2000/svg">
<rect width="597" height="509" fill="white"/>
<g clip-path="url(#clip0)">
<path d="M291.883 415.539C290.881 415.539 289.88 415.135 289.278 414.327L251.607 375.951L233.773 393.321C232.771 394.331 231.569 394.533 230.167 394.331C228.964 393.927 227.962 393.119 227.562 391.705L200.11 301.823C199.709 300.409 200.11 298.995 201.112 297.986C202.113 296.976 203.516 296.572 204.919 296.976L296.292 324.445C297.494 324.849 298.496 325.859 298.897 327.071C299.297 328.283 298.897 329.697 297.895 330.707L278.859 349.289L316.129 387.666C316.73 388.473 317.131 389.281 317.131 390.291C317.131 391.301 316.73 392.311 315.929 392.917L294.288 414.327C293.687 415.135 292.685 415.539 291.883 415.539ZM251.407 367.063C252.409 367.063 253.411 367.467 254.012 368.275L291.683 406.652L307.914 390.493L270.443 352.319C269.641 351.511 269.441 350.703 269.441 349.693C269.441 348.683 269.842 347.673 270.643 347.067L287.876 330.303L209.327 306.873L232.771 384.232L248.802 368.477C249.603 367.265 250.605 367.063 251.407 367.063Z" fill="black"/>
<path d="M342.981 441.596L175.464 440.991C174.462 440.991 173.46 440.587 172.859 439.779C172.258 438.971 171.857 438.163 171.857 437.153L172.459 266.68C172.459 264.66 174.062 262.842 176.266 262.842L343.783 263.448C344.785 263.448 345.787 263.852 346.388 264.66C346.989 265.468 347.39 266.276 347.39 267.286L346.788 437.759C346.788 439.779 345.185 441.596 342.981 441.596ZM179.271 433.315L339.374 433.921L339.976 271.124L179.873 270.518L179.271 433.315Z" fill="black"/>
<path d="M343.182 442C342.38 442 341.378 441.596 340.777 440.99C339.976 440.182 339.375 439.172 339.575 438.162L340.176 267.891C340.176 265.872 341.579 264.256 343.583 264.054L423.935 256.378C424.936 256.378 425.938 256.58 426.74 257.388C427.541 258.196 427.942 259.206 427.942 260.216V425.639C427.942 427.457 426.54 429.073 424.736 429.275L343.983 441.798C343.583 442 343.382 442 343.182 442ZM347.59 271.325L346.989 433.719L420.328 422.408V264.256L347.59 271.325Z" fill="black"/>
<path d="M344.385 272.74C342.983 272.74 341.58 271.932 340.979 270.518L310.12 205.48L149.817 204.874L179.473 266.681C180.275 268.499 179.673 270.72 177.67 271.73C175.866 272.538 173.662 271.932 172.66 269.913L140.399 202.652C139.798 201.441 139.998 200.027 140.599 199.017C141.201 198.007 142.403 197.199 143.806 197.199L312.325 197.805C313.727 197.805 315.13 198.613 315.731 200.027L344.185 259.813L370.234 199.623C370.835 198.411 372.038 197.603 373.24 197.401L452.79 189.524C454.193 189.322 455.395 189.928 456.197 191.139C456.998 192.149 457.199 193.765 456.598 194.977L425.94 262.439C425.138 264.257 422.934 265.267 420.93 264.257C419.127 263.449 418.125 261.227 419.127 259.207L447.18 197.401L376.246 204.47L347.792 270.115C347.191 271.73 345.988 272.74 344.385 272.74Z" fill="black"/>
<path d="M301.305 64.4951H274.454C272.45 64.4951 270.646 62.8793 270.646 60.6575C270.646 58.6377 272.25 56.8198 274.454 56.8198H301.104C303.108 56.8198 304.911 58.4357 304.911 60.6575C304.911 62.6773 303.308 64.4951 301.305 64.4951Z" fill="black"/>
<path d="M219.553 153.57H204.124C202.12 153.57 200.316 151.954 200.316 149.732C200.316 147.712 201.919 145.895 204.124 145.895H219.553C221.557 145.895 223.36 147.51 223.36 149.732C223.36 151.752 221.557 153.57 219.553 153.57Z" fill="black"/>
<path d="M248.408 64.2938L219.954 64.0918C217.95 64.0918 216.146 62.476 216.146 60.2542C216.146 58.2343 217.75 56.4165 219.954 56.4165L248.408 56.6185C250.411 56.6185 252.215 58.2343 252.215 60.4561C252.215 62.6779 250.411 64.2938 248.408 64.2938Z" fill="black"/>
<path d="M182.879 153.368H166.248C164.244 153.368 162.44 151.752 162.44 149.53C162.44 147.51 164.043 145.692 166.248 145.692H182.879C184.883 145.692 186.686 147.308 186.686 149.53C186.686 151.752 184.883 153.368 182.879 153.368Z" fill="black"/>
<path d="M261.235 106.304C259.231 106.304 257.428 104.688 257.428 102.466L257.628 73.7844C257.628 71.7646 259.231 69.9468 261.435 69.9468C263.439 69.9468 265.243 71.5626 265.243 73.7844L265.042 102.466C265.042 104.486 263.439 106.304 261.235 106.304Z" fill="black"/>
<path d="M261.429 50.3568C259.425 50.3568 257.622 48.7409 257.622 46.5191L257.822 17.8377C257.822 15.8178 259.425 14 261.63 14C263.633 14 265.437 15.6159 265.437 17.8377L265.236 46.5191C265.236 48.5389 263.633 50.3568 261.429 50.3568Z" fill="black"/>
<path d="M192.899 178.213C190.895 178.213 189.092 176.597 189.092 174.376V161.853C189.092 159.833 190.695 158.015 192.899 158.015C194.903 158.015 196.706 159.631 196.706 161.853V174.376C196.506 176.597 194.903 178.213 192.899 178.213Z" fill="black"/>
<path d="M192.899 141.249C190.895 141.249 189.092 139.633 189.092 137.411V124.888C189.092 122.869 190.695 121.051 192.899 121.051C194.903 121.051 196.706 122.667 196.706 124.888V137.411C196.706 139.633 195.103 141.249 192.899 141.249Z" fill="black"/>
<path d="M405.103 115.596H378.253C376.249 115.596 374.445 113.98 374.445 111.758C374.445 109.536 376.048 107.92 378.253 107.92H404.903C406.907 107.92 408.71 109.536 408.71 111.758C408.71 113.98 407.107 115.596 405.103 115.596Z" fill="black"/>
<path d="M352.402 115.398L323.948 115.196C321.944 115.196 320.141 113.58 320.141 111.358C320.141 109.338 321.744 107.521 323.948 107.521L352.402 107.722C354.405 107.722 356.209 109.338 356.209 111.56C356.009 113.782 354.405 115.398 352.402 115.398Z" fill="black"/>
<path d="M365.626 157.811C363.622 157.811 361.818 156.196 361.818 153.974V124.888C361.818 122.869 363.421 121.051 365.626 121.051C367.629 121.051 369.433 122.667 369.433 124.888V153.974C369.433 155.994 367.83 157.811 365.626 157.811Z" fill="black"/>
<path d="M365.827 101.256C363.823 101.256 362.02 99.6397 362.02 97.4179V68.5344C362.02 66.5146 363.623 64.6968 365.827 64.6968C367.831 64.6968 369.634 66.3126 369.634 68.5344V97.4179C369.634 99.6397 368.031 101.256 365.827 101.256Z" fill="black"/>
</g>
<defs>
<clipPath id="clip0">
<rect width="317" height="428" fill="white" transform="translate(140 14)"/>
</clipPath>
</defs>
</svg>
