<svg width="509" height="509" viewBox="0 0 509 509" fill="none" xmlns="http://www.w3.org/2000/svg">
<rect width="509" height="509" fill="white"/>
<g clip-path="url(#clip0)">
<path d="M498.029 250.171L408.919 157.27C408.271 156.604 407.299 155.938 406.003 155.938H352.536V131.63C352.536 112.65 337.307 97 318.837 97H107.888C89.4182 97 74.1885 112.65 74.1885 131.63V171.588C74.1885 173.919 75.8087 175.584 78.0769 175.584C80.3452 175.584 81.9654 173.919 81.9654 171.588V131.63C81.9654 116.979 93.6307 104.992 107.888 104.992H319.161C333.418 104.992 345.084 116.979 345.084 131.63V286.799H78.725C76.7808 286.799 75.1606 288.464 74.8366 290.129C74.5125 290.795 74.1885 291.461 74.1885 292.127V329.088C74.1885 348.068 89.4182 363.718 107.888 363.718H253.057C253.381 363.718 253.381 363.718 253.705 363.718H495.113C497.381 363.718 499.001 362.053 499.001 359.722V253.168C499.001 252.169 498.677 251.17 498.029 250.171ZM344.76 355.726H319.809C319.485 355.726 319.485 355.726 319.161 355.726H107.888C93.6307 355.726 81.9654 343.739 81.9654 329.088V294.791H344.76V355.726ZM352.536 164.262H404.382L482.799 246.175H352.536V164.262V164.262ZM491.224 355.726H352.536V291.128V290.795V290.462V254.167H490.576L491.224 254.833V355.726Z" fill="black"/>
<path d="M167.836 200.559H102.705C100.437 200.559 98.8164 198.894 98.8164 196.563C98.8164 194.232 100.437 192.567 102.705 192.567H168.16C170.429 192.567 172.049 194.232 172.049 196.563C172.049 198.894 170.105 200.559 167.836 200.559Z" fill="black"/>
<path d="M127.005 263.491H14.8884C12.6202 263.491 11 261.826 11 259.495C11 257.164 12.6202 255.5 14.8884 255.5H127.329C129.598 255.5 131.218 257.164 131.218 259.495C131.218 261.493 129.274 263.491 127.005 263.491Z" fill="black"/>
<path d="M146.125 231.195H56.0427C53.7745 231.195 52.1543 229.53 52.1543 227.199C52.1543 224.869 53.7745 223.204 56.0427 223.204H146.449C148.717 223.204 150.337 224.869 150.337 227.199C150.337 229.53 148.393 231.195 146.125 231.195Z" fill="black"/>
<path d="M418.638 408.004C441.366 408.004 459.791 389.071 459.791 365.715C459.791 342.36 441.366 323.427 418.638 323.427C395.91 323.427 377.485 342.36 377.485 365.715C377.485 389.071 395.91 408.004 418.638 408.004Z" fill="white"/>
<path d="M418.641 412C394.014 412 373.6 391.356 373.6 365.716C373.6 340.409 393.69 319.432 418.641 319.432C443.268 319.432 463.682 340.076 463.682 365.716C463.682 391.023 443.592 412 418.641 412ZM418.641 327.423C398.226 327.423 381.377 344.405 381.377 365.716C381.377 387.027 397.902 404.009 418.641 404.009C439.379 404.009 455.905 387.027 455.905 365.716C455.905 344.405 439.055 327.423 418.641 327.423Z" fill="black"/>
<path d="M418.638 381.7C409.565 381.7 402.112 374.042 402.112 364.718C402.112 355.395 409.565 347.736 418.638 347.736C427.711 347.736 435.164 355.395 435.164 364.718C435.164 374.042 427.711 381.7 418.638 381.7ZM418.638 356.061C413.778 356.061 409.889 360.057 409.889 365.051C409.889 370.046 413.778 374.042 418.638 374.042C423.499 374.042 427.387 370.046 427.387 365.051C427.387 360.057 423.499 356.061 418.638 356.061Z" fill="black"/>
<path d="M159.412 407.34C182.14 407.34 200.564 388.407 200.564 365.051C200.564 341.696 182.14 322.763 159.412 322.763C136.684 322.763 118.259 341.696 118.259 365.051C118.259 388.407 136.684 407.34 159.412 407.34Z" fill="white"/>
<path d="M159.407 411C134.781 411 114.366 390.356 114.366 364.716C114.366 339.409 134.457 318.432 159.407 318.432C184.034 318.432 204.449 339.076 204.449 364.716C204.449 390.356 184.034 411 159.407 411ZM159.407 326.756C138.993 326.756 122.143 343.738 122.143 365.049C122.143 386.36 138.669 403.342 159.407 403.342C180.146 403.342 196.672 386.36 196.672 365.049C196.672 343.738 179.822 326.756 159.407 326.756Z" fill="black"/>
<path d="M159.413 381.7C150.34 381.7 142.887 374.042 142.887 364.718C142.887 355.395 150.34 347.736 159.413 347.736C168.486 347.736 175.939 355.395 175.939 364.718C175.939 374.042 168.486 381.7 159.413 381.7ZM159.413 356.061C154.552 356.061 150.664 360.057 150.664 365.051C150.664 370.046 154.552 374.042 159.413 374.042C164.273 374.042 168.162 370.046 168.162 365.051C168.162 360.057 164.273 356.061 159.413 356.061Z" fill="black"/>
</g>
<defs>
<clipPath id="clip0">
<rect width="488" height="315" fill="white" transform="translate(11 97)"/>
</clipPath>
</defs>
</svg>
