<svg width="597" height="509" viewBox="0 0 597 509" fill="none" xmlns="http://www.w3.org/2000/svg">
<rect width="597" height="509" fill="white"/>
<g clip-path="url(#clip0)">
<path d="M484.726 182.596L420.177 106.161C419.532 105.214 418.241 104.898 417.272 104.898H178.443C177.152 104.898 176.184 105.53 175.215 106.477L117.122 182.912C116.154 184.491 116.154 186.386 117.445 187.65L297.535 385.054C298.18 386.002 299.149 386.318 300.44 386.318C301.408 386.318 302.699 386.002 303.344 385.054L484.726 187.65C486.017 186.071 486.017 184.176 484.726 182.596ZM359.501 188.282L300.762 368.314L245.251 188.282H359.501ZM248.801 180.701L302.376 116.9L355.629 180.701H248.801ZM308.185 112.162H408.558L363.697 178.806L308.185 112.162ZM240.409 178.806L188.125 112.162H296.244L240.409 178.806ZM292.694 367.998L128.418 188.282H237.182L292.694 367.998ZM367.57 188.282H473.752L308.831 367.683L367.57 188.282ZM371.443 180.701L416.627 113.426L473.107 180.701H371.443ZM179.411 113.426L232.341 180.701H128.418L179.411 113.426Z" fill="black"/>
<path d="M584.131 188.281H523.455C521.196 188.281 519.582 186.701 519.582 184.49C519.582 182.279 521.196 180.7 523.455 180.7H584.131C586.39 180.7 588.003 182.279 588.003 184.49C588.003 186.701 586.067 188.281 584.131 188.281Z" fill="black"/>
<path d="M504.082 135.849C503.114 135.849 502.146 135.533 501.177 134.586C499.886 133.007 499.886 130.796 501.5 129.216L536.356 97.9475C537.97 96.6841 540.229 96.6841 541.843 98.2633C543.134 99.8426 543.134 102.054 541.52 103.633L506.664 134.902C506.018 135.533 505.05 135.849 504.082 135.849Z" fill="black"/>
<path d="M538.292 265.979C537.324 265.979 536.355 265.664 535.71 265.032L500.854 233.763C499.24 232.5 499.24 229.973 500.531 228.394C501.822 226.814 504.404 226.814 506.017 228.078L540.874 259.347C542.487 260.61 542.487 263.137 541.196 264.716C540.228 265.348 539.26 265.979 538.292 265.979Z" fill="black"/>
<path d="M73.5485 188.595H12.8729C10.6137 188.595 9 187.016 9 184.805C9 182.594 10.6137 181.015 12.8729 181.015H73.5485C75.8077 181.015 77.4214 182.594 77.4214 184.805C77.4214 187.016 75.8077 188.595 73.5485 188.595Z" fill="black"/>
<path d="M97.1101 135.849C96.1419 135.849 95.1736 135.533 94.5282 134.902L59.672 103.633C58.0583 102.369 58.0583 99.8426 59.3492 98.2633C60.6402 96.6841 63.2221 96.6841 64.8358 97.9475L99.692 129.216C101.306 130.48 101.306 133.007 100.015 134.586C99.0466 135.533 98.0783 135.849 97.1101 135.849Z" fill="black"/>
<path d="M62.2539 265.979C61.2857 265.979 60.3175 265.664 59.3492 264.716C58.0583 263.137 58.0583 260.926 59.672 259.347L94.5282 228.078C96.1419 226.814 98.4011 226.814 100.015 228.394C101.306 229.973 101.306 232.184 99.692 233.763L64.8358 265.032C64.1904 265.664 63.2221 265.979 62.2539 265.979Z" fill="black"/>
</g>
<defs>
<clipPath id="clip0">
<rect width="579" height="289" fill="white" transform="translate(9 97)"/>
</clipPath>
</defs>
</svg>
